<svg width="2847" height="985" viewBox="0 0 2847 985" fill="none" xmlns="http://www.w3.org/2000/svg">
<path d="M450.366 960.728V938.561H454.494V960.728C454.494 962.792 454.071 964.533 453.226 965.952C452.38 967.371 451.212 968.453 449.721 969.199C448.245 969.93 446.546 970.295 444.625 970.295C442.705 970.295 440.999 969.966 439.508 969.306C438.018 968.647 436.849 967.644 436.004 966.296C435.158 964.949 434.735 963.25 434.735 961.201H438.885C438.885 962.519 439.128 963.601 439.616 964.447C440.103 965.293 440.777 965.916 441.637 966.318C442.511 966.719 443.507 966.92 444.625 966.92C445.715 966.92 446.689 966.69 447.549 966.232C448.424 965.759 449.112 965.063 449.614 964.146C450.115 963.214 450.366 962.075 450.366 960.728ZM476.624 964.49V946.602H480.623V969.865H476.817L476.624 964.49ZM477.376 959.588L479.032 959.545C479.032 961.093 478.867 962.526 478.537 963.845C478.222 965.149 477.706 966.282 476.989 967.242C476.273 968.203 475.334 968.955 474.173 969.5C473.012 970.03 471.6 970.295 469.937 970.295C468.805 970.295 467.766 970.13 466.82 969.801C465.888 969.471 465.085 968.962 464.412 968.274C463.738 967.586 463.215 966.69 462.842 965.587C462.484 964.483 462.304 963.157 462.304 961.609V946.602H466.282V961.652C466.282 962.698 466.397 963.566 466.626 964.254C466.87 964.927 467.192 965.465 467.594 965.866C468.009 966.253 468.468 966.526 468.97 966.683C469.486 966.841 470.016 966.92 470.561 966.92C472.252 966.92 473.592 966.597 474.581 965.952C475.57 965.293 476.28 964.411 476.71 963.308C477.154 962.19 477.376 960.95 477.376 959.588ZM492.475 936.841V969.865H488.476V936.841H492.475ZM525.361 938.389V969.865H521.383V943.355L513.364 946.279V942.689L524.737 938.389H525.361ZM558.262 961.394C558.262 963.3 557.818 964.92 556.929 966.253C556.055 967.572 554.865 968.575 553.36 969.263C551.869 969.951 550.185 970.295 548.308 970.295C546.43 970.295 544.739 969.951 543.233 969.263C541.728 968.575 540.539 967.572 539.664 966.253C538.79 964.92 538.353 963.3 538.353 961.394C538.353 960.147 538.589 959.008 539.062 957.976C539.55 956.929 540.231 956.019 541.105 955.245C541.994 954.471 543.04 953.876 544.244 953.46C545.462 953.03 546.803 952.815 548.265 952.815C550.185 952.815 551.898 953.188 553.403 953.933C554.908 954.664 556.091 955.675 556.951 956.965C557.825 958.255 558.262 959.731 558.262 961.394ZM554.263 961.308C554.263 960.147 554.012 959.122 553.511 958.234C553.009 957.33 552.307 956.628 551.404 956.126C550.501 955.625 549.454 955.374 548.265 955.374C547.046 955.374 545.993 955.625 545.104 956.126C544.23 956.628 543.549 957.33 543.061 958.234C542.574 959.122 542.33 960.147 542.33 961.308C542.33 962.512 542.567 963.544 543.04 964.404C543.527 965.25 544.215 965.902 545.104 966.361C546.007 966.805 547.075 967.027 548.308 967.027C549.54 967.027 550.601 966.805 551.49 966.361C552.378 965.902 553.059 965.25 553.532 964.404C554.02 963.544 554.263 962.512 554.263 961.308ZM557.531 946.709C557.531 948.229 557.13 949.598 556.327 950.816C555.525 952.034 554.428 952.995 553.038 953.697C551.647 954.399 550.071 954.75 548.308 954.75C546.516 954.75 544.918 954.399 543.513 953.697C542.123 952.995 541.033 952.034 540.245 950.816C539.457 949.598 539.062 948.229 539.062 946.709C539.062 944.889 539.457 943.341 540.245 942.065C541.048 940.79 542.144 939.815 543.534 939.141C544.925 938.467 546.509 938.131 548.286 938.131C550.078 938.131 551.669 938.467 553.059 939.141C554.45 939.815 555.539 940.79 556.327 942.065C557.13 943.341 557.531 944.889 557.531 946.709ZM553.554 946.774C553.554 945.727 553.332 944.803 552.887 944C552.443 943.198 551.826 942.567 551.038 942.108C550.25 941.635 549.332 941.399 548.286 941.399C547.24 941.399 546.322 941.621 545.534 942.065C544.76 942.495 544.151 943.112 543.706 943.914C543.276 944.717 543.061 945.67 543.061 946.774C543.061 947.849 543.276 948.788 543.706 949.59C544.151 950.393 544.767 951.017 545.556 951.461C546.344 951.905 547.261 952.127 548.308 952.127C549.354 952.127 550.264 951.905 551.038 951.461C551.826 951.017 552.443 950.393 552.887 949.59C553.332 948.788 553.554 947.849 553.554 946.774Z" fill="#F6F6F6"/>
<path d="M995.613 960.728V938.561H999.741V960.728C999.741 962.792 999.318 964.533 998.473 965.952C997.627 967.371 996.459 968.453 994.968 969.199C993.492 969.93 991.793 970.295 989.872 970.295C987.952 970.295 986.246 969.966 984.755 969.306C983.265 968.647 982.097 967.644 981.251 966.296C980.405 964.949 979.982 963.25 979.982 961.201H984.132C984.132 962.519 984.376 963.601 984.863 964.447C985.35 965.293 986.024 965.916 986.884 966.318C987.758 966.719 988.754 966.92 989.872 966.92C990.962 966.92 991.937 966.69 992.797 966.232C993.671 965.759 994.359 965.063 994.861 964.146C995.362 963.214 995.613 962.075 995.613 960.728ZM1021.87 964.49V946.602H1025.87V969.865H1022.06L1021.87 964.49ZM1022.62 959.588L1024.28 959.545C1024.28 961.093 1024.11 962.526 1023.78 963.845C1023.47 965.149 1022.95 966.282 1022.24 967.242C1021.52 968.203 1020.58 968.955 1019.42 969.5C1018.26 970.03 1016.85 970.295 1015.18 970.295C1014.05 970.295 1013.01 970.13 1012.07 969.801C1011.13 969.471 1010.33 968.962 1009.66 968.274C1008.98 967.586 1008.46 966.69 1008.09 965.587C1007.73 964.483 1007.55 963.157 1007.55 961.609V946.602H1011.53V961.652C1011.53 962.698 1011.64 963.566 1011.87 964.254C1012.12 964.927 1012.44 965.465 1012.84 965.866C1013.26 966.253 1013.72 966.526 1014.22 966.683C1014.73 966.841 1015.26 966.92 1015.81 966.92C1017.5 966.92 1018.84 966.597 1019.83 965.952C1020.82 965.293 1021.53 964.411 1021.96 963.308C1022.4 962.19 1022.62 960.95 1022.62 959.588ZM1037.72 936.841V969.865H1033.72V936.841H1037.72ZM1070.61 938.389V969.865H1066.63V943.355L1058.61 946.279V942.689L1069.98 938.389H1070.61ZM1087.73 966.533H1088.14C1090.43 966.533 1092.29 966.21 1093.73 965.565C1095.16 964.92 1096.26 964.053 1097.04 962.964C1097.81 961.874 1098.34 960.649 1098.63 959.287C1098.92 957.911 1099.06 956.499 1099.06 955.051V950.257C1099.06 948.838 1098.89 947.576 1098.56 946.473C1098.25 945.369 1097.8 944.445 1097.23 943.699C1096.67 942.954 1096.03 942.388 1095.32 942.001C1094.6 941.614 1093.84 941.42 1093.04 941.42C1092.12 941.42 1091.3 941.607 1090.57 941.979C1089.85 942.338 1089.24 942.846 1088.74 943.506C1088.25 944.165 1087.88 944.939 1087.62 945.828C1087.36 946.716 1087.23 947.684 1087.23 948.73C1087.23 949.662 1087.35 950.565 1087.58 951.439C1087.81 952.314 1088.16 953.102 1088.63 953.804C1089.1 954.507 1089.69 955.066 1090.39 955.481C1091.11 955.883 1091.95 956.083 1092.91 956.083C1093.8 956.083 1094.63 955.911 1095.4 955.567C1096.19 955.209 1096.89 954.729 1097.49 954.127C1098.11 953.511 1098.59 952.815 1098.95 952.041C1099.32 951.267 1099.54 950.458 1099.6 949.612H1101.49C1101.49 950.802 1101.25 951.977 1100.78 953.138C1100.32 954.285 1099.68 955.331 1098.84 956.277C1098.01 957.223 1097.04 957.983 1095.92 958.556C1094.8 959.115 1093.58 959.395 1092.26 959.395C1090.72 959.395 1089.38 959.094 1088.24 958.492C1087.11 957.89 1086.18 957.087 1085.45 956.083C1084.73 955.08 1084.19 953.962 1083.84 952.729C1083.49 951.482 1083.32 950.221 1083.32 948.945C1083.32 947.455 1083.53 946.057 1083.94 944.753C1084.36 943.448 1084.98 942.302 1085.79 941.313C1086.61 940.309 1087.62 939.528 1088.82 938.969C1090.04 938.41 1091.45 938.131 1093.04 938.131C1094.83 938.131 1096.36 938.489 1097.62 939.206C1098.88 939.922 1099.9 940.883 1100.69 942.087C1101.5 943.291 1102.08 944.645 1102.46 946.15C1102.83 947.655 1103.01 949.203 1103.01 950.794V952.235C1103.01 953.855 1102.91 955.503 1102.69 957.18C1102.49 958.843 1102.1 960.434 1101.51 961.953C1100.94 963.472 1100.1 964.834 1098.99 966.038C1097.89 967.228 1096.45 968.174 1094.67 968.876C1092.91 969.564 1090.73 969.908 1088.14 969.908H1087.73V966.533Z" fill="#F6F6F6"/>
<path d="M1544.53 960.728V938.561H1548.65V960.728C1548.65 962.792 1548.23 964.533 1547.39 965.952C1546.54 967.371 1545.37 968.453 1543.88 969.199C1542.4 969.93 1540.71 970.295 1538.79 970.295C1536.86 970.295 1535.16 969.966 1533.67 969.306C1532.18 968.647 1531.01 967.644 1530.16 966.296C1529.32 964.949 1528.9 963.25 1528.9 961.201H1533.04C1533.04 962.519 1533.29 963.601 1533.78 964.447C1534.26 965.293 1534.94 965.916 1535.8 966.318C1536.67 966.719 1537.67 966.92 1538.79 966.92C1539.87 966.92 1540.85 966.69 1541.71 966.232C1542.58 965.759 1543.27 965.063 1543.77 964.146C1544.28 963.214 1544.53 962.075 1544.53 960.728ZM1570.78 964.49V946.602H1574.78V969.865H1570.98L1570.78 964.49ZM1571.54 959.588L1573.19 959.545C1573.19 961.093 1573.03 962.526 1572.7 963.845C1572.38 965.149 1571.87 966.282 1571.15 967.242C1570.43 968.203 1569.49 968.955 1568.33 969.5C1567.17 970.03 1565.76 970.295 1564.1 970.295C1562.96 970.295 1561.93 970.13 1560.98 969.801C1560.05 969.471 1559.25 968.962 1558.57 968.274C1557.9 967.586 1557.37 966.69 1557 965.587C1556.64 964.483 1556.46 963.157 1556.46 961.609V946.602H1560.44V961.652C1560.44 962.698 1560.56 963.566 1560.79 964.254C1561.03 964.927 1561.35 965.465 1561.75 965.866C1562.17 966.253 1562.63 966.526 1563.13 966.683C1563.65 966.841 1564.18 966.92 1564.72 966.92C1566.41 966.92 1567.75 966.597 1568.74 965.952C1569.73 965.293 1570.44 964.411 1570.87 963.308C1571.31 962.19 1571.54 960.95 1571.54 959.588ZM1586.64 936.841V969.865H1582.64V936.841H1586.64ZM1626.96 966.597V969.865H1606.47V967.006L1616.73 955.589C1617.99 954.184 1618.96 952.995 1619.65 952.02C1620.35 951.031 1620.84 950.149 1621.11 949.375C1621.4 948.587 1621.54 947.784 1621.54 946.967C1621.54 945.935 1621.33 945.004 1620.9 944.172C1620.48 943.327 1619.87 942.653 1619.05 942.151C1618.23 941.65 1617.24 941.399 1616.08 941.399C1614.69 941.399 1613.53 941.671 1612.6 942.216C1611.68 942.746 1610.99 943.491 1610.53 944.452C1610.08 945.412 1609.85 946.516 1609.85 947.763H1605.87C1605.87 946 1606.26 944.387 1607.03 942.925C1607.8 941.463 1608.95 940.302 1610.47 939.442C1611.99 938.568 1613.86 938.131 1616.08 938.131C1618.06 938.131 1619.75 938.482 1621.16 939.184C1622.56 939.872 1623.63 940.847 1624.38 942.108C1625.14 943.355 1625.52 944.817 1625.52 946.494C1625.52 947.412 1625.36 948.343 1625.05 949.289C1624.75 950.221 1624.32 951.153 1623.78 952.084C1623.25 953.016 1622.62 953.933 1621.91 954.836C1621.21 955.739 1620.45 956.628 1619.65 957.502L1611.26 966.597H1626.96ZM1652.34 951.719V956.492C1652.34 959.058 1652.11 961.222 1651.65 962.985C1651.19 964.748 1650.53 966.167 1649.67 967.242C1648.81 968.317 1647.77 969.098 1646.55 969.586C1645.35 970.059 1643.99 970.295 1642.47 970.295C1641.26 970.295 1640.15 970.145 1639.14 969.844C1638.12 969.543 1637.2 969.063 1636.38 968.403C1635.58 967.73 1634.89 966.855 1634.32 965.78C1633.75 964.705 1633.31 963.401 1633.01 961.867C1632.71 960.333 1632.56 958.542 1632.56 956.492V951.719C1632.56 949.153 1632.79 947.003 1633.24 945.269C1633.72 943.534 1634.38 942.144 1635.24 941.098C1636.1 940.037 1637.14 939.277 1638.34 938.819C1639.56 938.36 1640.92 938.131 1642.42 938.131C1643.64 938.131 1644.76 938.281 1645.78 938.582C1646.81 938.869 1647.73 939.335 1648.53 939.98C1649.33 940.61 1650.01 941.456 1650.57 942.517C1651.15 943.563 1651.58 944.846 1651.88 946.365C1652.19 947.885 1652.34 949.669 1652.34 951.719ZM1648.34 957.137V951.052C1648.34 949.648 1648.25 948.415 1648.08 947.354C1647.92 946.279 1647.69 945.362 1647.37 944.602C1647.05 943.843 1646.65 943.226 1646.17 942.753C1645.69 942.28 1645.14 941.936 1644.51 941.721C1643.89 941.492 1643.2 941.377 1642.42 941.377C1641.48 941.377 1640.64 941.556 1639.91 941.915C1639.18 942.259 1638.56 942.811 1638.06 943.57C1637.57 944.33 1637.2 945.326 1636.94 946.559C1636.68 947.791 1636.56 949.289 1636.56 951.052V957.137C1636.56 958.542 1636.63 959.782 1636.79 960.857C1636.96 961.932 1637.21 962.863 1637.54 963.652C1637.87 964.426 1638.28 965.063 1638.75 965.565C1639.22 966.067 1639.77 966.44 1640.38 966.683C1641.01 966.913 1641.71 967.027 1642.47 967.027C1643.44 967.027 1644.3 966.841 1645.03 966.468C1645.76 966.095 1646.37 965.515 1646.85 964.727C1647.36 963.924 1647.73 962.899 1647.97 961.652C1648.22 960.391 1648.34 958.886 1648.34 957.137Z" fill="#F6F6F6"/>
<path d="M2090.33 960.728V938.561H2094.46V960.728C2094.46 962.792 2094.04 964.533 2093.19 965.952C2092.35 967.371 2091.18 968.453 2089.69 969.199C2088.21 969.93 2086.51 970.295 2084.59 970.295C2082.67 970.295 2080.96 969.966 2079.47 969.306C2077.98 968.647 2076.82 967.644 2075.97 966.296C2075.12 964.949 2074.7 963.25 2074.7 961.201H2078.85C2078.85 962.519 2079.09 963.601 2079.58 964.447C2080.07 965.293 2080.74 965.916 2081.6 966.318C2082.48 966.719 2083.47 966.92 2084.59 966.92C2085.68 966.92 2086.66 966.69 2087.52 966.232C2088.39 965.759 2089.08 965.063 2089.58 964.146C2090.08 963.214 2090.33 962.075 2090.33 960.728ZM2116.59 964.49V946.602H2120.59V969.865H2116.78L2116.59 964.49ZM2117.34 959.588L2119 959.545C2119 961.093 2118.83 962.526 2118.5 963.845C2118.19 965.149 2117.67 966.282 2116.96 967.242C2116.24 968.203 2115.3 968.955 2114.14 969.5C2112.98 970.03 2111.57 970.295 2109.9 970.295C2108.77 970.295 2107.73 970.13 2106.79 969.801C2105.85 969.471 2105.05 968.962 2104.38 968.274C2103.7 967.586 2103.18 966.69 2102.81 965.587C2102.45 964.483 2102.27 963.157 2102.27 961.609V946.602H2106.25V961.652C2106.25 962.698 2106.36 963.566 2106.59 964.254C2106.84 964.927 2107.16 965.465 2107.56 965.866C2107.98 966.253 2108.43 966.526 2108.94 966.683C2109.45 966.841 2109.98 966.92 2110.53 966.92C2112.22 966.92 2113.56 966.597 2114.55 965.952C2115.54 965.293 2116.25 964.411 2116.68 963.308C2117.12 962.19 2117.34 960.95 2117.34 959.588ZM2132.44 936.841V969.865H2128.44V936.841H2132.44ZM2172.77 966.597V969.865H2152.28V967.006L2162.53 955.589C2163.79 954.184 2164.77 952.995 2165.46 952.02C2166.16 951.031 2166.65 950.149 2166.92 949.375C2167.2 948.587 2167.35 947.784 2167.35 946.967C2167.35 945.935 2167.13 945.004 2166.7 944.172C2166.29 943.327 2165.67 942.653 2164.85 942.151C2164.04 941.65 2163.05 941.399 2161.89 941.399C2160.5 941.399 2159.34 941.671 2158.4 942.216C2157.49 942.746 2156.8 943.491 2156.34 944.452C2155.88 945.412 2155.65 946.516 2155.65 947.763H2151.67C2151.67 946 2152.06 944.387 2152.83 942.925C2153.61 941.463 2154.76 940.302 2156.28 939.442C2157.79 938.568 2159.66 938.131 2161.89 938.131C2163.86 938.131 2165.56 938.482 2166.96 939.184C2168.37 939.872 2169.44 940.847 2170.19 942.108C2170.95 943.355 2171.33 944.817 2171.33 946.494C2171.33 947.412 2171.17 948.343 2170.85 949.289C2170.55 950.221 2170.13 951.153 2169.58 952.084C2169.05 953.016 2168.43 953.933 2167.71 954.836C2167.01 955.739 2166.26 956.628 2165.46 957.502L2157.07 966.597H2172.77ZM2191.56 938.389V969.865H2187.59V943.355L2179.57 946.279V942.689L2190.94 938.389H2191.56Z" fill="#F6F6F6"/>
<path d="M2633.18 960.728V938.561H2637.31V960.728C2637.31 962.792 2636.89 964.533 2636.04 965.952C2635.2 967.371 2634.03 968.453 2632.54 969.199C2631.06 969.93 2629.36 970.295 2627.44 970.295C2625.52 970.295 2623.82 969.966 2622.33 969.306C2620.84 968.647 2619.67 967.644 2618.82 966.296C2617.98 964.949 2617.55 963.25 2617.55 961.201H2621.7C2621.7 962.519 2621.95 963.601 2622.43 964.447C2622.92 965.293 2623.6 965.916 2624.46 966.318C2625.33 966.719 2626.33 966.92 2627.44 966.92C2628.53 966.92 2629.51 966.69 2630.37 966.232C2631.24 965.759 2631.93 965.063 2632.43 964.146C2632.93 963.214 2633.18 962.075 2633.18 960.728ZM2659.44 964.49V946.602H2663.44V969.865H2659.64L2659.44 964.49ZM2660.19 959.588L2661.85 959.545C2661.85 961.093 2661.69 962.526 2661.36 963.845C2661.04 965.149 2660.52 966.282 2659.81 967.242C2659.09 968.203 2658.15 968.955 2656.99 969.5C2655.83 970.03 2654.42 970.295 2652.76 970.295C2651.62 970.295 2650.58 970.13 2649.64 969.801C2648.71 969.471 2647.9 968.962 2647.23 968.274C2646.56 967.586 2646.03 966.69 2645.66 965.587C2645.3 964.483 2645.12 963.157 2645.12 961.609V946.602H2649.1V961.652C2649.1 962.698 2649.22 963.566 2649.44 964.254C2649.69 964.927 2650.01 965.465 2650.41 965.866C2650.83 966.253 2651.29 966.526 2651.79 966.683C2652.3 966.841 2652.83 966.92 2653.38 966.92C2655.07 966.92 2656.41 966.597 2657.4 965.952C2658.39 965.293 2659.1 964.411 2659.53 963.308C2659.97 962.19 2660.19 960.95 2660.19 959.588ZM2675.29 936.841V969.865H2671.29V936.841H2675.29ZM2715.62 966.597V969.865H2695.13V967.006L2705.38 955.589C2706.65 954.184 2707.62 952.995 2708.31 952.02C2709.01 951.031 2709.5 950.149 2709.77 949.375C2710.06 948.587 2710.2 947.784 2710.2 946.967C2710.2 945.935 2709.99 945.004 2709.56 944.172C2709.14 943.327 2708.52 942.653 2707.71 942.151C2706.89 941.65 2705.9 941.399 2704.74 941.399C2703.35 941.399 2702.19 941.671 2701.26 942.216C2700.34 942.746 2699.65 943.491 2699.19 944.452C2698.73 945.412 2698.5 946.516 2698.5 947.763H2694.53C2694.53 946 2694.91 944.387 2695.69 942.925C2696.46 941.463 2697.61 940.302 2699.13 939.442C2700.65 938.568 2702.52 938.131 2704.74 938.131C2706.72 938.131 2708.41 938.482 2709.81 939.184C2711.22 939.872 2712.29 940.847 2713.04 942.108C2713.8 943.355 2714.18 944.817 2714.18 946.494C2714.18 947.412 2714.02 948.343 2713.7 949.289C2713.4 950.221 2712.98 951.153 2712.44 952.084C2711.91 953.016 2711.28 953.933 2710.57 954.836C2709.86 955.739 2709.11 956.628 2708.31 957.502L2699.92 966.597H2715.62ZM2741.85 966.597V969.865H2721.36V967.006L2731.62 955.589C2732.88 954.184 2733.86 952.995 2734.54 952.02C2735.25 951.031 2735.73 950.149 2736.01 949.375C2736.29 948.587 2736.44 947.784 2736.44 946.967C2736.44 945.935 2736.22 945.004 2735.79 944.172C2735.38 943.327 2734.76 942.653 2733.94 942.151C2733.13 941.65 2732.14 941.399 2730.98 941.399C2729.59 941.399 2728.42 941.671 2727.49 942.216C2726.58 942.746 2725.89 943.491 2725.43 944.452C2724.97 945.412 2724.74 946.516 2724.74 947.763H2720.76C2720.76 946 2721.15 944.387 2721.92 942.925C2722.7 941.463 2723.84 940.302 2725.36 939.442C2726.88 938.568 2728.75 938.131 2730.98 938.131C2732.95 938.131 2734.64 938.482 2736.05 939.184C2737.45 939.872 2738.53 940.847 2739.27 942.108C2740.03 943.355 2740.41 944.817 2740.41 946.494C2740.41 947.412 2740.26 948.343 2739.94 949.289C2739.64 950.221 2739.22 951.153 2738.67 952.084C2738.14 953.016 2737.52 953.933 2736.8 954.836C2736.1 955.739 2735.35 956.628 2734.54 957.502L2726.16 966.597H2741.85Z" fill="#F6F6F6"/>
<path d="M52.7344 52.5061V59.0637H49.5094V52.5061H52.7344ZM52.3474 87.6162V93.3569H49.1439V87.6162H52.3474ZM56.6475 80.8221C56.6475 79.9621 56.454 79.1881 56.067 78.5001C55.68 77.8121 55.0422 77.1814 54.1535 76.608C53.2648 76.0347 52.0751 75.5043 50.5844 75.017C48.7784 74.458 47.216 73.7771 45.8973 72.9745C44.593 72.1718 43.5824 71.1756 42.8658 69.9859C42.1634 68.7962 41.8122 67.3557 41.8122 65.6643C41.8122 63.9013 42.1921 62.3819 42.9518 61.1062C43.7114 59.8305 44.7865 58.8487 46.1768 58.1607C47.5672 57.4727 49.2012 57.1287 51.0789 57.1287C52.5409 57.1287 53.8453 57.3508 54.992 57.7952C56.1387 58.2252 57.1062 58.8702 57.8945 59.7302C58.6972 60.5902 59.3064 61.6437 59.7221 62.8908C60.1521 64.1378 60.3671 65.5783 60.3671 67.2123H56.411C56.411 66.252 56.2963 65.3705 56.067 64.5678C55.8377 63.7651 55.4937 63.0699 55.035 62.4823C54.5763 61.8802 54.0173 61.4216 53.358 61.1062C52.6986 60.7766 51.9389 60.6117 51.0789 60.6117C49.8749 60.6117 48.8787 60.8196 48.0904 61.2352C47.3163 61.6509 46.743 62.2386 46.3703 62.9983C45.9976 63.7436 45.8113 64.6108 45.8113 65.5998C45.8113 66.5172 45.9976 67.3199 46.3703 68.0079C46.743 68.6959 47.3737 69.3194 48.2624 69.8784C49.1654 70.4231 50.4052 70.9606 51.9819 71.4909C53.831 72.0786 55.4005 72.7738 56.6905 73.5765C57.9805 74.3648 58.9624 75.3395 59.6361 76.5005C60.3098 77.6472 60.6466 79.0734 60.6466 80.7791C60.6466 82.6281 60.2309 84.1905 59.3996 85.4662C58.5682 86.7276 57.4 87.6879 55.895 88.3473C54.39 89.0066 52.6269 89.3363 50.6059 89.3363C49.3875 89.3363 48.1835 89.1714 46.9938 88.8418C45.8041 88.5121 44.7291 87.9746 43.7688 87.2292C42.8084 86.4696 42.0416 85.4734 41.4682 84.2407C40.8949 82.9937 40.6082 81.4671 40.6082 79.6611H44.6073C44.6073 80.8794 44.7793 81.89 45.1233 82.6926C45.4816 83.481 45.9546 84.1117 46.5423 84.5847C47.13 85.0434 47.775 85.373 48.4774 85.5737C49.194 85.76 49.9036 85.8532 50.6059 85.8532C51.8959 85.8532 52.9853 85.6525 53.874 85.2512C54.777 84.8355 55.465 84.2478 55.938 83.4882C56.411 82.7285 56.6475 81.8398 56.6475 80.8221ZM87.5923 85.6167V88.8848H67.1025V86.0252L77.3582 74.6085C78.6195 73.2038 79.5942 72.0141 80.2822 71.0394C80.9846 70.0504 81.4719 69.1689 81.7442 68.3949C82.0309 67.6065 82.1742 66.8038 82.1742 65.9868C82.1742 64.9548 81.9592 64.0231 81.5292 63.1918C81.1136 62.3461 80.4972 61.6724 79.6802 61.1707C78.8632 60.6691 77.8742 60.4182 76.7131 60.4182C75.3228 60.4182 74.1618 60.6906 73.2301 61.2352C72.3127 61.7656 71.6247 62.5109 71.166 63.4713C70.7074 64.4316 70.478 65.5353 70.478 66.7823H66.5004C66.5004 65.0193 66.8874 63.4068 67.6615 61.9447C68.4355 60.4827 69.5822 59.3217 71.1015 58.4617C72.6209 57.5873 74.4914 57.1502 76.7131 57.1502C78.6912 57.1502 80.3825 57.5013 81.7872 58.2037C83.1919 58.8917 84.267 59.8664 85.0123 61.1277C85.772 62.3748 86.1518 63.8368 86.1518 65.5138C86.1518 66.4312 85.9942 67.3629 85.6788 68.3089C85.3778 69.2406 84.955 70.1722 84.4103 71.1039C83.8799 72.0356 83.2564 72.953 82.5398 73.856C81.8374 74.759 81.0849 75.6477 80.2822 76.522L71.897 85.6167H87.5923ZM99.1223 71.2759H101.96C103.351 71.2759 104.497 71.0466 105.4 70.5879C106.318 70.1149 106.999 69.4771 107.443 68.6744C107.902 67.8574 108.131 66.94 108.131 65.9223C108.131 64.7183 107.93 63.7078 107.529 62.8908C107.128 62.0737 106.526 61.4574 105.723 61.0417C104.92 60.6261 103.903 60.4182 102.67 60.4182C101.552 60.4182 100.563 60.6404 99.7028 61.0847C98.8571 61.5147 98.1906 62.1311 97.7033 62.9338C97.2303 63.7364 96.9938 64.6825 96.9938 65.7718H93.0162C93.0162 64.1808 93.4175 62.7331 94.2202 61.4287C95.0229 60.1244 96.1481 59.0852 97.5958 58.3112C99.0578 57.5372 100.749 57.1502 102.67 57.1502C104.562 57.1502 106.217 57.487 107.636 58.1607C109.055 58.82 110.159 59.809 110.948 61.1277C111.736 62.4321 112.13 64.059 112.13 66.0083C112.13 66.7967 111.944 67.6424 111.571 68.5454C111.213 69.4341 110.647 70.2654 109.873 71.0394C109.113 71.8134 108.124 72.4513 106.905 72.953C105.687 73.4403 104.225 73.684 102.519 73.684H99.1223V71.2759ZM99.1223 74.544V72.1574H102.519C104.512 72.1574 106.16 72.3939 107.464 72.867C108.769 73.34 109.794 73.9706 110.539 74.759C111.299 75.5473 111.829 76.4145 112.13 77.3605C112.445 78.2922 112.603 79.2239 112.603 80.1556C112.603 81.6176 112.352 82.9148 111.851 84.0472C111.363 85.1795 110.668 86.1399 109.765 86.9282C108.876 87.7166 107.83 88.3114 106.626 88.7128C105.422 89.1141 104.11 89.3148 102.691 89.3148C101.33 89.3148 100.047 89.1213 98.8428 88.7343C97.6531 88.3473 96.5996 87.7882 95.6822 87.0572C94.7649 86.3119 94.0482 85.4017 93.5322 84.3267C93.0162 83.2373 92.7582 81.9975 92.7582 80.6071H96.7358C96.7358 81.6965 96.9723 82.6496 97.4453 83.4667C97.9326 84.2837 98.6206 84.9215 99.5093 85.3802C100.412 85.8245 101.473 86.0467 102.691 86.0467C103.91 86.0467 104.956 85.8389 105.83 85.4232C106.719 84.9932 107.4 84.3482 107.873 83.4882C108.36 82.6281 108.604 81.546 108.604 80.2416C108.604 78.9372 108.332 77.8694 107.787 77.038C107.242 76.1924 106.468 75.5688 105.465 75.1675C104.476 74.7518 103.308 74.544 101.96 74.544H99.1223ZM123.596 84.1547V87.3582C123.596 88.6626 123.266 90.0386 122.606 91.4863C121.947 92.9483 121.023 94.1667 119.833 95.1414L117.575 93.5719C118.034 92.9412 118.421 92.2962 118.736 91.6368C119.052 90.9918 119.288 90.3181 119.446 89.6158C119.618 88.9278 119.704 88.1968 119.704 87.4227V84.1547H123.596ZM149.359 70.7384V75.5115C149.359 78.0772 149.129 80.2416 148.671 82.0046C148.212 83.7677 147.553 85.1867 146.693 86.2617C145.833 87.3367 144.793 88.1179 143.575 88.6053C142.371 89.0783 141.009 89.3148 139.49 89.3148C138.286 89.3148 137.175 89.1643 136.157 88.8633C135.14 88.5623 134.222 88.0821 133.405 87.4227C132.603 86.7491 131.915 85.8747 131.341 84.7997C130.768 83.7247 130.331 82.4203 130.03 80.8866C129.729 79.3529 129.578 77.5612 129.578 75.5115V70.7384C129.578 68.1727 129.808 66.0227 130.266 64.2883C130.739 62.5539 131.406 61.1636 132.266 60.1172C133.126 59.0565 134.158 58.2968 135.362 57.8382C136.58 57.3795 137.942 57.1502 139.447 57.1502C140.665 57.1502 141.783 57.3007 142.801 57.6017C143.833 57.8883 144.75 58.3542 145.553 58.9992C146.356 59.6299 147.037 60.4756 147.596 61.5362C148.169 62.5826 148.606 63.8655 148.907 65.3848C149.208 66.9042 149.359 68.6887 149.359 70.7384ZM145.36 76.1565V70.0719C145.36 68.6672 145.274 67.4345 145.102 66.3738C144.944 65.2988 144.707 64.3815 144.392 63.6218C144.077 62.8621 143.675 62.2458 143.188 61.7727C142.715 61.2997 142.163 60.9557 141.533 60.7407C140.916 60.5114 140.221 60.3967 139.447 60.3967C138.501 60.3967 137.663 60.5759 136.931 60.9342C136.2 61.2782 135.584 61.8301 135.082 62.5898C134.595 63.3494 134.222 64.3456 133.964 65.5783C133.706 66.811 133.577 68.3089 133.577 70.0719V76.1565C133.577 77.5612 133.656 78.8011 133.814 79.8761C133.986 80.9511 134.237 81.8828 134.566 82.6711C134.896 83.4452 135.297 84.083 135.77 84.5847C136.243 85.0864 136.788 85.459 137.405 85.7027C138.035 85.932 138.73 86.0467 139.49 86.0467C140.465 86.0467 141.318 85.8604 142.049 85.4877C142.78 85.115 143.389 84.5345 143.876 83.7462C144.378 82.9435 144.75 81.9186 144.994 80.6716C145.238 79.4102 145.36 77.9052 145.36 76.1565ZM175.595 70.7384V75.5115C175.595 78.0772 175.366 80.2416 174.907 82.0046C174.448 83.7677 173.789 85.1867 172.929 86.2617C172.069 87.3367 171.03 88.1179 169.811 88.6053C168.607 89.0783 167.246 89.3148 165.726 89.3148C164.522 89.3148 163.411 89.1643 162.394 88.8633C161.376 88.5623 160.459 88.0821 159.642 87.4227C158.839 86.7491 158.151 85.8747 157.578 84.7997C157.004 83.7247 156.567 82.4203 156.266 80.8866C155.965 79.3529 155.815 77.5612 155.815 75.5115V70.7384C155.815 68.1727 156.044 66.0227 156.503 64.2883C156.976 62.5539 157.642 61.1636 158.502 60.1172C159.362 59.0565 160.394 58.2968 161.598 57.8382C162.817 57.3795 164.178 57.1502 165.683 57.1502C166.902 57.1502 168.02 57.3007 169.037 57.6017C170.069 57.8883 170.987 58.3542 171.789 58.9992C172.592 59.6299 173.273 60.4756 173.832 61.5362C174.405 62.5826 174.842 63.8655 175.143 65.3848C175.444 66.9042 175.595 68.6887 175.595 70.7384ZM171.596 76.1565V70.0719C171.596 68.6672 171.51 67.4345 171.338 66.3738C171.18 65.2988 170.944 64.3815 170.628 63.6218C170.313 62.8621 169.912 62.2458 169.424 61.7727C168.951 61.2997 168.4 60.9557 167.769 60.7407C167.152 60.5114 166.457 60.3967 165.683 60.3967C164.737 60.3967 163.899 60.5759 163.168 60.9342C162.437 61.2782 161.82 61.8301 161.319 62.5898C160.831 63.3494 160.459 64.3456 160.201 65.5783C159.943 66.811 159.814 68.3089 159.814 70.0719V76.1565C159.814 77.5612 159.893 78.8011 160.05 79.8761C160.222 80.9511 160.473 81.8828 160.803 82.6711C161.132 83.4452 161.534 84.083 162.007 84.5847C162.48 85.0864 163.024 85.459 163.641 85.7027C164.271 85.932 164.967 86.0467 165.726 86.0467C166.701 86.0467 167.554 85.8604 168.285 85.4877C169.016 85.115 169.625 84.5345 170.112 83.7462C170.614 82.9435 170.987 81.9186 171.23 80.6716C171.474 79.4102 171.596 77.9052 171.596 76.1565ZM201.831 70.7384V75.5115C201.831 78.0772 201.602 80.2416 201.143 82.0046C200.685 83.7677 200.025 85.1867 199.165 86.2617C198.305 87.3367 197.266 88.1179 196.048 88.6053C194.844 89.0783 193.482 89.3148 191.963 89.3148C190.758 89.3148 189.648 89.1643 188.63 88.8633C187.612 88.5623 186.695 88.0821 185.878 87.4227C185.075 86.7491 184.387 85.8747 183.814 84.7997C183.241 83.7247 182.803 82.4203 182.502 80.8866C182.201 79.3529 182.051 77.5612 182.051 75.5115V70.7384C182.051 68.1727 182.28 66.0227 182.739 64.2883C183.212 62.5539 183.878 61.1636 184.738 60.1172C185.598 59.0565 186.63 58.2968 187.834 57.8382C189.053 57.3795 190.414 57.1502 191.92 57.1502C193.138 57.1502 194.256 57.3007 195.274 57.6017C196.306 57.8883 197.223 58.3542 198.026 58.9992C198.828 59.6299 199.509 60.4756 200.068 61.5362C200.642 62.5826 201.079 63.8655 201.38 65.3848C201.681 66.9042 201.831 68.6887 201.831 70.7384ZM197.832 76.1565V70.0719C197.832 68.6672 197.746 67.4345 197.574 66.3738C197.416 65.2988 197.18 64.3815 196.865 63.6218C196.549 62.8621 196.148 62.2458 195.661 61.7727C195.188 61.2997 194.636 60.9557 194.005 60.7407C193.389 60.5114 192.694 60.3967 191.92 60.3967C190.973 60.3967 190.135 60.5759 189.404 60.9342C188.673 61.2782 188.057 61.8301 187.555 62.5898C187.068 63.3494 186.695 64.3456 186.437 65.5783C186.179 66.811 186.05 68.3089 186.05 70.0719V76.1565C186.05 77.5612 186.129 78.8011 186.286 79.8761C186.458 80.9511 186.709 81.8828 187.039 82.6711C187.369 83.4452 187.77 84.083 188.243 84.5847C188.716 85.0864 189.261 85.459 189.877 85.7027C190.508 85.932 191.203 86.0467 191.963 86.0467C192.937 86.0467 193.79 85.8604 194.521 85.4877C195.252 85.115 195.861 84.5345 196.349 83.7462C196.85 82.9435 197.223 81.9186 197.467 80.6716C197.71 79.4102 197.832 77.9052 197.832 76.1565Z" fill="#89B9FF"/>
<path d="M52.7344 254.403V260.96H49.5094V254.403H52.7344ZM52.3474 289.513V295.253H49.1439V289.513H52.3474ZM56.6475 282.719C56.6475 281.859 56.454 281.085 56.067 280.397C55.68 279.709 55.0422 279.078 54.1535 278.505C53.2648 277.931 52.0751 277.401 50.5844 276.913C48.7784 276.354 47.216 275.674 45.8973 274.871C44.593 274.068 43.5824 273.072 42.8658 271.882C42.1634 270.693 41.8122 269.252 41.8122 267.561C41.8122 265.798 42.1921 264.278 42.9518 263.003C43.7114 261.727 44.7865 260.745 46.1768 260.057C47.5672 259.369 49.2012 259.025 51.0789 259.025C52.5409 259.025 53.8453 259.247 54.992 259.692C56.1387 260.122 57.1062 260.767 57.8945 261.627C58.6972 262.487 59.3064 263.54 59.7221 264.787C60.1521 266.034 60.3671 267.475 60.3671 269.109H56.411C56.411 268.148 56.2963 267.267 56.067 266.464C55.8377 265.662 55.4937 264.966 55.035 264.379C54.5763 263.777 54.0173 263.318 53.358 263.003C52.6986 262.673 51.9389 262.508 51.0789 262.508C49.8749 262.508 48.8787 262.716 48.0904 263.132C47.3163 263.547 46.743 264.135 46.3703 264.895C45.9976 265.64 45.8113 266.507 45.8113 267.496C45.8113 268.414 45.9976 269.216 46.3703 269.904C46.743 270.592 47.3737 271.216 48.2624 271.775C49.1654 272.32 50.4052 272.857 51.9819 273.387C53.831 273.975 55.4005 274.67 56.6905 275.473C57.9805 276.261 58.9624 277.236 59.6361 278.397C60.3098 279.544 60.6466 280.97 60.6466 282.676C60.6466 284.525 60.2309 286.087 59.3996 287.363C58.5682 288.624 57.4 289.584 55.895 290.244C54.39 290.903 52.6269 291.233 50.6059 291.233C49.3875 291.233 48.1835 291.068 46.9938 290.738C45.8041 290.409 44.7291 289.871 43.7688 289.126C42.8084 288.366 42.0416 287.37 41.4682 286.137C40.8949 284.89 40.6082 283.364 40.6082 281.558H44.6073C44.6073 282.776 44.7793 283.786 45.1233 284.589C45.4816 285.377 45.9546 286.008 46.5423 286.481C47.13 286.94 47.775 287.27 48.4774 287.47C49.194 287.657 49.9036 287.75 50.6059 287.75C51.8959 287.75 52.9853 287.549 53.874 287.148C54.777 286.732 55.465 286.144 55.938 285.385C56.411 284.625 56.6475 283.736 56.6475 282.719ZM87.5923 287.513V290.781H67.1025V287.922L77.3582 276.505C78.6195 275.1 79.5942 273.911 80.2822 272.936C80.9846 271.947 81.4719 271.065 81.7442 270.291C82.0309 269.503 82.1742 268.7 82.1742 267.883C82.1742 266.851 81.9592 265.92 81.5292 265.088C81.1136 264.243 80.4972 263.569 79.6802 263.067C78.8632 262.566 77.8742 262.315 76.7131 262.315C75.3228 262.315 74.1618 262.587 73.2301 263.132C72.3127 263.662 71.6247 264.407 71.166 265.368C70.7074 266.328 70.478 267.432 70.478 268.679H66.5004C66.5004 266.916 66.8874 265.303 67.6615 263.841C68.4355 262.379 69.5822 261.218 71.1015 260.358C72.6209 259.484 74.4914 259.047 76.7131 259.047C78.6912 259.047 80.3825 259.398 81.7872 260.1C83.1919 260.788 84.267 261.763 85.0123 263.024C85.772 264.271 86.1518 265.733 86.1518 267.41C86.1518 268.328 85.9942 269.259 85.6788 270.205C85.3778 271.137 84.955 272.069 84.4103 273C83.8799 273.932 83.2564 274.849 82.5398 275.752C81.8374 276.655 81.0849 277.544 80.2822 278.419L71.897 287.513H87.5923ZM113.829 287.513V290.781H93.3387V287.922L103.594 276.505C104.856 275.1 105.83 273.911 106.518 272.936C107.221 271.947 107.708 271.065 107.98 270.291C108.267 269.503 108.41 268.7 108.41 267.883C108.41 266.851 108.195 265.92 107.765 265.088C107.35 264.243 106.733 263.569 105.916 263.067C105.099 262.566 104.11 262.315 102.949 262.315C101.559 262.315 100.398 262.587 99.4663 263.132C98.549 263.662 97.8609 264.407 97.4023 265.368C96.9436 266.328 96.7143 267.432 96.7143 268.679H92.7367C92.7367 266.916 93.1237 265.303 93.8977 263.841C94.6717 262.379 95.8184 261.218 97.3378 260.358C98.8571 259.484 100.728 259.047 102.949 259.047C104.927 259.047 106.619 259.398 108.023 260.1C109.428 260.788 110.503 261.763 111.249 263.024C112.008 264.271 112.388 265.733 112.388 267.41C112.388 268.328 112.23 269.259 111.915 270.205C111.614 271.137 111.191 272.069 110.647 273C110.116 273.932 109.493 274.849 108.776 275.752C108.074 276.655 107.321 277.544 106.518 278.419L98.1333 287.513H113.829ZM123.596 286.051V289.255C123.596 290.559 123.266 291.935 122.606 293.383C121.947 294.845 121.023 296.063 119.833 297.038L117.575 295.468C118.034 294.838 118.421 294.193 118.736 293.533C119.052 292.888 119.288 292.215 119.446 291.512C119.618 290.824 119.704 290.093 119.704 289.319V286.051H123.596ZM149.359 272.635V277.408C149.359 279.974 149.129 282.138 148.671 283.901C148.212 285.664 147.553 287.083 146.693 288.158C145.833 289.233 144.793 290.014 143.575 290.502C142.371 290.975 141.009 291.211 139.49 291.211C138.286 291.211 137.175 291.061 136.157 290.76C135.14 290.459 134.222 289.979 133.405 289.319C132.603 288.646 131.915 287.771 131.341 286.696C130.768 285.621 130.331 284.317 130.03 282.783C129.729 281.249 129.578 279.458 129.578 277.408V272.635C129.578 270.069 129.808 267.919 130.266 266.185C130.739 264.45 131.406 263.06 132.266 262.014C133.126 260.953 134.158 260.193 135.362 259.735C136.58 259.276 137.942 259.047 139.447 259.047C140.665 259.047 141.783 259.197 142.801 259.498C143.833 259.785 144.75 260.251 145.553 260.896C146.356 261.526 147.037 262.372 147.596 263.433C148.169 264.479 148.606 265.762 148.907 267.281C149.208 268.801 149.359 270.585 149.359 272.635ZM145.36 278.053V271.968C145.36 270.564 145.274 269.331 145.102 268.27C144.944 267.195 144.707 266.278 144.392 265.518C144.077 264.759 143.675 264.142 143.188 263.669C142.715 263.196 142.163 262.852 141.533 262.637C140.916 262.408 140.221 262.293 139.447 262.293C138.501 262.293 137.663 262.472 136.931 262.831C136.2 263.175 135.584 263.727 135.082 264.486C134.595 265.246 134.222 266.242 133.964 267.475C133.706 268.707 133.577 270.205 133.577 271.968V278.053C133.577 279.458 133.656 280.698 133.814 281.773C133.986 282.848 134.237 283.779 134.566 284.568C134.896 285.342 135.297 285.979 135.77 286.481C136.243 286.983 136.788 287.356 137.405 287.599C138.035 287.829 138.73 287.943 139.49 287.943C140.465 287.943 141.318 287.757 142.049 287.384C142.78 287.012 143.389 286.431 143.876 285.643C144.378 284.84 144.75 283.815 144.994 282.568C145.238 281.307 145.36 279.802 145.36 278.053ZM175.595 272.635V277.408C175.595 279.974 175.366 282.138 174.907 283.901C174.448 285.664 173.789 287.083 172.929 288.158C172.069 289.233 171.03 290.014 169.811 290.502C168.607 290.975 167.246 291.211 165.726 291.211C164.522 291.211 163.411 291.061 162.394 290.76C161.376 290.459 160.459 289.979 159.642 289.319C158.839 288.646 158.151 287.771 157.578 286.696C157.004 285.621 156.567 284.317 156.266 282.783C155.965 281.249 155.815 279.458 155.815 277.408V272.635C155.815 270.069 156.044 267.919 156.503 266.185C156.976 264.45 157.642 263.06 158.502 262.014C159.362 260.953 160.394 260.193 161.598 259.735C162.817 259.276 164.178 259.047 165.683 259.047C166.902 259.047 168.02 259.197 169.037 259.498C170.069 259.785 170.987 260.251 171.789 260.896C172.592 261.526 173.273 262.372 173.832 263.433C174.405 264.479 174.842 265.762 175.143 267.281C175.444 268.801 175.595 270.585 175.595 272.635ZM171.596 278.053V271.968C171.596 270.564 171.51 269.331 171.338 268.27C171.18 267.195 170.944 266.278 170.628 265.518C170.313 264.759 169.912 264.142 169.424 263.669C168.951 263.196 168.4 262.852 167.769 262.637C167.152 262.408 166.457 262.293 165.683 262.293C164.737 262.293 163.899 262.472 163.168 262.831C162.437 263.175 161.82 263.727 161.319 264.486C160.831 265.246 160.459 266.242 160.201 267.475C159.943 268.707 159.814 270.205 159.814 271.968V278.053C159.814 279.458 159.893 280.698 160.05 281.773C160.222 282.848 160.473 283.779 160.803 284.568C161.132 285.342 161.534 285.979 162.007 286.481C162.48 286.983 163.024 287.356 163.641 287.599C164.271 287.829 164.967 287.943 165.726 287.943C166.701 287.943 167.554 287.757 168.285 287.384C169.016 287.012 169.625 286.431 170.112 285.643C170.614 284.84 170.987 283.815 171.23 282.568C171.474 281.307 171.596 279.802 171.596 278.053ZM201.831 272.635V277.408C201.831 279.974 201.602 282.138 201.143 283.901C200.685 285.664 200.025 287.083 199.165 288.158C198.305 289.233 197.266 290.014 196.048 290.502C194.844 290.975 193.482 291.211 191.963 291.211C190.758 291.211 189.648 291.061 188.63 290.76C187.612 290.459 186.695 289.979 185.878 289.319C185.075 288.646 184.387 287.771 183.814 286.696C183.241 285.621 182.803 284.317 182.502 282.783C182.201 281.249 182.051 279.458 182.051 277.408V272.635C182.051 270.069 182.28 267.919 182.739 266.185C183.212 264.45 183.878 263.06 184.738 262.014C185.598 260.953 186.63 260.193 187.834 259.735C189.053 259.276 190.414 259.047 191.92 259.047C193.138 259.047 194.256 259.197 195.274 259.498C196.306 259.785 197.223 260.251 198.026 260.896C198.828 261.526 199.509 262.372 200.068 263.433C200.642 264.479 201.079 265.762 201.38 267.281C201.681 268.801 201.831 270.585 201.831 272.635ZM197.832 278.053V271.968C197.832 270.564 197.746 269.331 197.574 268.27C197.416 267.195 197.18 266.278 196.865 265.518C196.549 264.759 196.148 264.142 195.661 263.669C195.188 263.196 194.636 262.852 194.005 262.637C193.389 262.408 192.694 262.293 191.92 262.293C190.973 262.293 190.135 262.472 189.404 262.831C188.673 263.175 188.057 263.727 187.555 264.486C187.068 265.246 186.695 266.242 186.437 267.475C186.179 268.707 186.05 270.205 186.05 271.968V278.053C186.05 279.458 186.129 280.698 186.286 281.773C186.458 282.848 186.709 283.779 187.039 284.568C187.369 285.342 187.77 285.979 188.243 286.481C188.716 286.983 189.261 287.356 189.877 287.599C190.508 287.829 191.203 287.943 191.963 287.943C192.937 287.943 193.79 287.757 194.521 287.384C195.252 287.012 195.861 286.431 196.349 285.643C196.85 284.84 197.223 283.815 197.467 282.568C197.71 281.307 197.832 279.802 197.832 278.053Z" fill="#F6F6F6"/>
<path d="M14.6934 456.305V462.863H11.4684V456.305H14.6934ZM14.3064 491.415V497.156H11.1029V491.415H14.3064ZM18.6065 484.621C18.6065 483.761 18.413 482.987 18.026 482.299C17.639 481.611 17.0011 480.98 16.1125 480.407C15.2238 479.834 14.0341 479.303 12.5434 478.816C10.7374 478.257 9.17499 477.576 7.8563 476.773C6.55194 475.971 5.54142 474.974 4.82474 473.785C4.12239 472.595 3.77122 471.155 3.77122 469.463C3.77122 467.7 4.15106 466.181 4.91074 464.905C5.67042 463.629 6.74544 462.648 8.1358 461.96C9.52616 461.271 11.1602 460.927 13.0379 460.927C14.4999 460.927 15.8043 461.15 16.951 461.594C18.0977 462.024 19.0652 462.669 19.8535 463.529C20.6562 464.389 21.2654 465.443 21.6811 466.69C22.1111 467.937 22.3261 469.377 22.3261 471.011H18.37C18.37 470.051 18.2553 469.169 18.026 468.367C17.7967 467.564 17.4526 466.869 16.994 466.281C16.5353 465.679 15.9763 465.22 15.3169 464.905C14.6576 464.575 13.8979 464.411 13.0379 464.411C11.8339 464.411 10.8377 464.618 10.0493 465.034C9.27532 465.45 8.70198 466.037 8.32931 466.797C7.95663 467.542 7.77029 468.41 7.77029 469.399C7.77029 470.316 7.95663 471.119 8.32931 471.807C8.70198 472.495 9.33266 473.118 10.2213 473.677C11.1244 474.222 12.3642 474.759 13.9409 475.29C15.7899 475.877 17.3595 476.573 18.6495 477.375C19.9395 478.164 20.9214 479.138 21.5951 480.299C22.2687 481.446 22.6056 482.872 22.6056 484.578C22.6056 486.427 22.1899 487.989 21.3586 489.265C20.5272 490.526 19.359 491.487 17.854 492.146C16.349 492.805 14.5859 493.135 12.5649 493.135C11.3465 493.135 10.1425 492.97 8.95282 492.641C7.76313 492.311 6.68811 491.773 5.72775 491.028C4.7674 490.268 4.00055 489.272 3.42721 488.04C2.85387 486.792 2.56719 485.266 2.56719 483.46H6.56627C6.56627 484.678 6.73827 485.689 7.08228 486.491C7.44062 487.28 7.91363 487.911 8.50131 488.384C9.08899 488.842 9.734 489.172 10.4363 489.373C11.153 489.559 11.8625 489.652 12.5649 489.652C13.8549 489.652 14.9443 489.451 15.8329 489.05C16.736 488.634 17.424 488.047 17.897 487.287C18.37 486.527 18.6065 485.639 18.6065 484.621ZM49.5513 489.416V492.684H29.0614V489.824L39.3171 478.407C40.5785 477.003 41.5532 475.813 42.2412 474.838C42.9435 473.849 43.4309 472.968 43.7032 472.194C43.9899 471.405 44.1332 470.603 44.1332 469.786C44.1332 468.754 43.9182 467.822 43.4882 466.991C43.0725 466.145 42.4562 465.471 41.6392 464.97C40.8222 464.468 39.8331 464.217 38.6721 464.217C37.2818 464.217 36.1207 464.489 35.1891 465.034C34.2717 465.564 33.5837 466.31 33.125 467.27C32.6663 468.23 32.437 469.334 32.437 470.581H28.4594C28.4594 468.818 28.8464 467.206 29.6204 465.744C30.3945 464.282 31.5412 463.121 33.0605 462.261C34.5799 461.386 36.4504 460.949 38.6721 460.949C40.6502 460.949 42.3415 461.3 43.7462 462.003C45.1509 462.691 46.2259 463.665 46.9713 464.927C47.731 466.174 48.1108 467.636 48.1108 469.313C48.1108 470.23 47.9531 471.162 47.6378 472.108C47.3368 473.039 46.9139 473.971 46.3693 474.903C45.8389 475.834 45.2154 476.752 44.4987 477.655C43.7964 478.558 43.0439 479.447 42.2412 480.321L33.856 489.416H49.5513ZM68.3484 461.207V492.684H64.3709V466.174L56.3512 469.098V465.507L67.7249 461.207H68.3484ZM85.5545 487.954V491.157C85.5545 492.461 85.2248 493.837 84.5655 495.285C83.9061 496.747 82.9816 497.966 81.7919 498.94L79.5344 497.371C79.9931 496.74 80.3801 496.095 80.6954 495.436C81.0107 494.791 81.2472 494.117 81.4049 493.415C81.5769 492.727 81.6629 491.996 81.6629 491.222V487.954H85.5545ZM111.318 474.537V479.31C111.318 481.876 111.088 484.04 110.63 485.803C110.171 487.566 109.512 488.986 108.652 490.061C107.792 491.136 106.752 491.917 105.534 492.404C104.33 492.877 102.968 493.114 101.449 493.114C100.245 493.114 99.1341 492.963 98.1165 492.662C97.0988 492.361 96.1814 491.881 95.3644 491.222C94.5617 490.548 93.8737 489.674 93.3004 488.599C92.727 487.523 92.2899 486.219 91.9888 484.685C91.6878 483.152 91.5373 481.36 91.5373 479.31V474.537C91.5373 471.972 91.7667 469.821 92.2253 468.087C92.6984 466.353 93.3649 464.962 94.2249 463.916C95.0849 462.855 96.1169 462.096 97.3209 461.637C98.5393 461.178 99.901 460.949 101.406 460.949C102.624 460.949 103.742 461.099 104.76 461.4C105.792 461.687 106.709 462.153 107.512 462.798C108.315 463.429 108.996 464.274 109.555 465.335C110.128 466.381 110.565 467.664 110.866 469.184C111.167 470.703 111.318 472.488 111.318 474.537ZM107.319 479.955V473.871C107.319 472.466 107.233 471.233 107.061 470.173C106.903 469.098 106.666 468.18 106.351 467.421C106.036 466.661 105.634 466.045 105.147 465.572C104.674 465.099 104.122 464.755 103.492 464.54C102.875 464.31 102.18 464.196 101.406 464.196C100.46 464.196 99.6215 464.375 98.8905 464.733C98.1595 465.077 97.5431 465.629 97.0414 466.389C96.5541 467.148 96.1814 468.144 95.9234 469.377C95.6654 470.61 95.5364 472.108 95.5364 473.871V479.955C95.5364 481.36 95.6152 482.6 95.7729 483.675C95.9449 484.75 96.1958 485.682 96.5254 486.47C96.8551 487.244 97.2564 487.882 97.7295 488.384C98.2025 488.885 98.7471 489.258 99.3635 489.502C99.9942 489.731 100.689 489.846 101.449 489.846C102.424 489.846 103.277 489.659 104.008 489.287C104.739 488.914 105.348 488.333 105.835 487.545C106.337 486.742 106.709 485.717 106.953 484.47C107.197 483.209 107.319 481.704 107.319 479.955ZM137.554 474.537V479.31C137.554 481.876 137.325 484.04 136.866 485.803C136.407 487.566 135.748 488.986 134.888 490.061C134.028 491.136 132.989 491.917 131.77 492.404C130.566 492.877 129.205 493.114 127.685 493.114C126.481 493.114 125.37 492.963 124.353 492.662C123.335 492.361 122.418 491.881 121.601 491.222C120.798 490.548 120.11 489.674 119.537 488.599C118.963 487.523 118.526 486.219 118.225 484.685C117.924 483.152 117.774 481.36 117.774 479.31V474.537C117.774 471.972 118.003 469.821 118.462 468.087C118.935 466.353 119.601 464.962 120.461 463.916C121.321 462.855 122.353 462.096 123.557 461.637C124.776 461.178 126.137 460.949 127.642 460.949C128.861 460.949 129.979 461.099 130.996 461.4C132.028 461.687 132.946 462.153 133.748 462.798C134.551 463.429 135.232 464.274 135.791 465.335C136.364 466.381 136.801 467.664 137.102 469.184C137.403 470.703 137.554 472.488 137.554 474.537ZM133.555 479.955V473.871C133.555 472.466 133.469 471.233 133.297 470.173C133.139 469.098 132.903 468.18 132.587 467.421C132.272 466.661 131.871 466.045 131.383 465.572C130.91 465.099 130.358 464.755 129.728 464.54C129.111 464.31 128.416 464.196 127.642 464.196C126.696 464.196 125.858 464.375 125.127 464.733C124.396 465.077 123.779 465.629 123.278 466.389C122.79 467.148 122.418 468.144 122.16 469.377C121.902 470.61 121.773 472.108 121.773 473.871V479.955C121.773 481.36 121.851 482.6 122.009 483.675C122.181 484.75 122.432 485.682 122.762 486.47C123.091 487.244 123.493 487.882 123.966 488.384C124.439 488.885 124.983 489.258 125.6 489.502C126.23 489.731 126.926 489.846 127.685 489.846C128.66 489.846 129.513 489.659 130.244 489.287C130.975 488.914 131.584 488.333 132.071 487.545C132.573 486.742 132.946 485.717 133.189 484.47C133.433 483.209 133.555 481.704 133.555 479.955ZM163.79 474.537V479.31C163.79 481.876 163.561 484.04 163.102 485.803C162.644 487.566 161.984 488.986 161.124 490.061C160.264 491.136 159.225 491.917 158.007 492.404C156.803 492.877 155.441 493.114 153.922 493.114C152.717 493.114 151.607 492.963 150.589 492.662C149.571 492.361 148.654 491.881 147.837 491.222C147.034 490.548 146.346 489.674 145.773 488.599C145.199 487.523 144.762 486.219 144.461 484.685C144.16 483.152 144.01 481.36 144.01 479.31V474.537C144.01 471.972 144.239 469.821 144.698 468.087C145.171 466.353 145.837 464.962 146.697 463.916C147.557 462.855 148.589 462.096 149.793 461.637C151.012 461.178 152.373 460.949 153.878 460.949C155.097 460.949 156.215 461.099 157.233 461.4C158.265 461.687 159.182 462.153 159.985 462.798C160.787 463.429 161.468 464.274 162.027 465.335C162.601 466.381 163.038 467.664 163.339 469.184C163.64 470.703 163.79 472.488 163.79 474.537ZM159.791 479.955V473.871C159.791 472.466 159.705 471.233 159.533 470.173C159.375 469.098 159.139 468.18 158.824 467.421C158.508 466.661 158.107 466.045 157.62 465.572C157.147 465.099 156.595 464.755 155.964 464.54C155.348 464.31 154.653 464.196 153.878 464.196C152.932 464.196 152.094 464.375 151.363 464.733C150.632 465.077 150.016 465.629 149.514 466.389C149.027 467.148 148.654 468.144 148.396 469.377C148.138 470.61 148.009 472.108 148.009 473.871V479.955C148.009 481.36 148.088 482.6 148.245 483.675C148.417 484.75 148.668 485.682 148.998 486.47C149.328 487.244 149.729 487.882 150.202 488.384C150.675 488.885 151.22 489.258 151.836 489.502C152.467 489.731 153.162 489.846 153.922 489.846C154.896 489.846 155.749 489.659 156.48 489.287C157.211 488.914 157.82 488.333 158.308 487.545C158.809 486.742 159.182 485.717 159.426 484.47C159.669 483.209 159.791 481.704 159.791 479.955Z" fill="#F6F6F6"/>
<path d="M52.7344 658.201V664.759H49.5094V658.201H52.7344ZM52.3474 693.312V699.052H49.1439V693.312H52.3474ZM56.6475 686.517C56.6475 685.657 56.454 684.883 56.067 684.195C55.68 683.507 55.0422 682.877 54.1535 682.303C53.2648 681.73 52.0751 681.2 50.5844 680.712C48.7784 680.153 47.216 679.472 45.8973 678.67C44.593 677.867 43.5824 676.871 42.8658 675.681C42.1634 674.492 41.8122 673.051 41.8122 671.36C41.8122 669.597 42.1921 668.077 42.9518 666.802C43.7114 665.526 44.7865 664.544 46.1768 663.856C47.5672 663.168 49.2012 662.824 51.0789 662.824C52.5409 662.824 53.8453 663.046 54.992 663.49C56.1387 663.92 57.1062 664.565 57.8945 665.426C58.6972 666.286 59.3064 667.339 59.7221 668.586C60.1521 669.833 60.3671 671.274 60.3671 672.908H56.411C56.411 671.947 56.2963 671.066 56.067 670.263C55.8377 669.46 55.4937 668.765 55.035 668.178C54.5763 667.576 54.0173 667.117 53.358 666.802C52.6986 666.472 51.9389 666.307 51.0789 666.307C49.8749 666.307 48.8787 666.515 48.0904 666.931C47.3163 667.346 46.743 667.934 46.3703 668.694C45.9976 669.439 45.8113 670.306 45.8113 671.295C45.8113 672.212 45.9976 673.015 46.3703 673.703C46.743 674.391 47.3737 675.015 48.2624 675.574C49.1654 676.118 50.4052 676.656 51.9819 677.186C53.831 677.774 55.4005 678.469 56.6905 679.272C57.9805 680.06 58.9624 681.035 59.6361 682.196C60.3098 683.343 60.6466 684.769 60.6466 686.474C60.6466 688.323 60.2309 689.886 59.3996 691.162C58.5682 692.423 57.4 693.383 55.895 694.043C54.39 694.702 52.6269 695.032 50.6059 695.032C49.3875 695.032 48.1835 694.867 46.9938 694.537C45.8041 694.207 44.7291 693.67 43.7688 692.925C42.8084 692.165 42.0416 691.169 41.4682 689.936C40.8949 688.689 40.6082 687.162 40.6082 685.356H44.6073C44.6073 686.575 44.7793 687.585 45.1233 688.388C45.4816 689.176 45.9546 689.807 46.5423 690.28C47.13 690.739 47.775 691.068 48.4774 691.269C49.194 691.455 49.9036 691.549 50.6059 691.549C51.8959 691.549 52.9853 691.348 53.874 690.947C54.777 690.531 55.465 689.943 55.938 689.183C56.411 688.424 56.6475 687.535 56.6475 686.517ZM87.5923 691.312V694.58H67.1025V691.721L77.3582 680.304C78.6195 678.899 79.5942 677.709 80.2822 676.735C80.9846 675.746 81.4719 674.864 81.7442 674.09C82.0309 673.302 82.1742 672.499 82.1742 671.682C82.1742 670.65 81.9592 669.718 81.5292 668.887C81.1136 668.041 80.4972 667.368 79.6802 666.866C78.8632 666.364 77.8742 666.114 76.7131 666.114C75.3228 666.114 74.1618 666.386 73.2301 666.931C72.3127 667.461 71.6247 668.206 71.166 669.167C70.7074 670.127 70.478 671.231 70.478 672.478H66.5004C66.5004 670.715 66.8874 669.102 67.6615 667.64C68.4355 666.178 69.5822 665.017 71.1015 664.157C72.6209 663.283 74.4914 662.845 76.7131 662.845C78.6912 662.845 80.3825 663.197 81.7872 663.899C83.1919 664.587 84.267 665.562 85.0123 666.823C85.772 668.07 86.1518 669.532 86.1518 671.209C86.1518 672.126 85.9942 673.058 85.6788 674.004C85.3778 674.936 84.955 675.868 84.4103 676.799C83.8799 677.731 83.2564 678.648 82.5398 679.551C81.8374 680.454 81.0849 681.343 80.2822 682.217L71.897 691.312H87.5923ZM112.969 676.434V681.207C112.969 683.773 112.739 685.937 112.281 687.7C111.822 689.463 111.163 690.882 110.303 691.957C109.443 693.032 108.403 693.813 107.185 694.301C105.981 694.774 104.619 695.01 103.1 695.01C101.896 695.01 100.785 694.86 99.7673 694.559C98.7496 694.258 97.8323 693.777 97.0153 693.118C96.2126 692.444 95.5246 691.57 94.9512 690.495C94.3779 689.42 93.9407 688.116 93.6397 686.582C93.3387 685.048 93.1882 683.257 93.1882 681.207V676.434C93.1882 673.868 93.4175 671.718 93.8762 669.984C94.3492 668.249 95.0157 666.859 95.8757 665.813C96.7358 664.752 97.7678 663.992 98.9718 663.533C100.19 663.075 101.552 662.845 103.057 662.845C104.275 662.845 105.393 662.996 106.411 663.297C107.443 663.584 108.36 664.049 109.163 664.695C109.966 665.325 110.647 666.171 111.206 667.232C111.779 668.278 112.216 669.561 112.517 671.08C112.818 672.599 112.969 674.384 112.969 676.434ZM108.969 681.852V675.767C108.969 674.363 108.883 673.13 108.711 672.069C108.554 670.994 108.317 670.077 108.002 669.317C107.687 668.557 107.285 667.941 106.798 667.468C106.325 666.995 105.773 666.651 105.142 666.436C104.526 666.207 103.831 666.092 103.057 666.092C102.111 666.092 101.272 666.271 100.541 666.63C99.8103 666.974 99.194 667.525 98.6923 668.285C98.205 669.045 97.8323 670.041 97.5743 671.274C97.3163 672.506 97.1873 674.004 97.1873 675.767V681.852C97.1873 683.257 97.2661 684.496 97.4238 685.571C97.5958 686.646 97.8466 687.578 98.1763 688.366C98.506 689.14 98.9073 689.778 99.3803 690.28C99.8533 690.782 100.398 691.154 101.014 691.398C101.645 691.627 102.34 691.742 103.1 691.742C104.075 691.742 104.927 691.556 105.658 691.183C106.389 690.81 106.999 690.23 107.486 689.441C107.988 688.639 108.36 687.614 108.604 686.367C108.848 685.106 108.969 683.601 108.969 681.852ZM123.596 689.85V693.054C123.596 694.358 123.266 695.734 122.606 697.182C121.947 698.644 121.023 699.862 119.833 700.837L117.575 699.267C118.034 698.636 118.421 697.991 118.736 697.332C119.052 696.687 119.288 696.013 119.446 695.311C119.618 694.623 119.704 693.892 119.704 693.118V689.85H123.596ZM149.359 676.434V681.207C149.359 683.773 149.129 685.937 148.671 687.7C148.212 689.463 147.553 690.882 146.693 691.957C145.833 693.032 144.793 693.813 143.575 694.301C142.371 694.774 141.009 695.01 139.49 695.01C138.286 695.01 137.175 694.86 136.157 694.559C135.14 694.258 134.222 693.777 133.405 693.118C132.603 692.444 131.915 691.57 131.341 690.495C130.768 689.42 130.331 688.116 130.03 686.582C129.729 685.048 129.578 683.257 129.578 681.207V676.434C129.578 673.868 129.808 671.718 130.266 669.984C130.739 668.249 131.406 666.859 132.266 665.813C133.126 664.752 134.158 663.992 135.362 663.533C136.58 663.075 137.942 662.845 139.447 662.845C140.665 662.845 141.783 662.996 142.801 663.297C143.833 663.584 144.75 664.049 145.553 664.695C146.356 665.325 147.037 666.171 147.596 667.232C148.169 668.278 148.606 669.561 148.907 671.08C149.208 672.599 149.359 674.384 149.359 676.434ZM145.36 681.852V675.767C145.36 674.363 145.274 673.13 145.102 672.069C144.944 670.994 144.707 670.077 144.392 669.317C144.077 668.557 143.675 667.941 143.188 667.468C142.715 666.995 142.163 666.651 141.533 666.436C140.916 666.207 140.221 666.092 139.447 666.092C138.501 666.092 137.663 666.271 136.931 666.63C136.2 666.974 135.584 667.525 135.082 668.285C134.595 669.045 134.222 670.041 133.964 671.274C133.706 672.506 133.577 674.004 133.577 675.767V681.852C133.577 683.257 133.656 684.496 133.814 685.571C133.986 686.646 134.237 687.578 134.566 688.366C134.896 689.14 135.297 689.778 135.77 690.28C136.243 690.782 136.788 691.154 137.405 691.398C138.035 691.627 138.73 691.742 139.49 691.742C140.465 691.742 141.318 691.556 142.049 691.183C142.78 690.81 143.389 690.23 143.876 689.441C144.378 688.639 144.75 687.614 144.994 686.367C145.238 685.106 145.36 683.601 145.36 681.852ZM175.595 676.434V681.207C175.595 683.773 175.366 685.937 174.907 687.7C174.448 689.463 173.789 690.882 172.929 691.957C172.069 693.032 171.03 693.813 169.811 694.301C168.607 694.774 167.246 695.01 165.726 695.01C164.522 695.01 163.411 694.86 162.394 694.559C161.376 694.258 160.459 693.777 159.642 693.118C158.839 692.444 158.151 691.57 157.578 690.495C157.004 689.42 156.567 688.116 156.266 686.582C155.965 685.048 155.815 683.257 155.815 681.207V676.434C155.815 673.868 156.044 671.718 156.503 669.984C156.976 668.249 157.642 666.859 158.502 665.813C159.362 664.752 160.394 663.992 161.598 663.533C162.817 663.075 164.178 662.845 165.683 662.845C166.902 662.845 168.02 662.996 169.037 663.297C170.069 663.584 170.987 664.049 171.789 664.695C172.592 665.325 173.273 666.171 173.832 667.232C174.405 668.278 174.842 669.561 175.143 671.08C175.444 672.599 175.595 674.384 175.595 676.434ZM171.596 681.852V675.767C171.596 674.363 171.51 673.13 171.338 672.069C171.18 670.994 170.944 670.077 170.628 669.317C170.313 668.557 169.912 667.941 169.424 667.468C168.951 666.995 168.4 666.651 167.769 666.436C167.152 666.207 166.457 666.092 165.683 666.092C164.737 666.092 163.899 666.271 163.168 666.63C162.437 666.974 161.82 667.525 161.319 668.285C160.831 669.045 160.459 670.041 160.201 671.274C159.943 672.506 159.814 674.004 159.814 675.767V681.852C159.814 683.257 159.893 684.496 160.05 685.571C160.222 686.646 160.473 687.578 160.803 688.366C161.132 689.14 161.534 689.778 162.007 690.28C162.48 690.782 163.024 691.154 163.641 691.398C164.271 691.627 164.967 691.742 165.726 691.742C166.701 691.742 167.554 691.556 168.285 691.183C169.016 690.81 169.625 690.23 170.112 689.441C170.614 688.639 170.987 687.614 171.23 686.367C171.474 685.106 171.596 683.601 171.596 681.852ZM201.831 676.434V681.207C201.831 683.773 201.602 685.937 201.143 687.7C200.685 689.463 200.025 690.882 199.165 691.957C198.305 693.032 197.266 693.813 196.048 694.301C194.844 694.774 193.482 695.01 191.963 695.01C190.758 695.01 189.648 694.86 188.63 694.559C187.612 694.258 186.695 693.777 185.878 693.118C185.075 692.444 184.387 691.57 183.814 690.495C183.241 689.42 182.803 688.116 182.502 686.582C182.201 685.048 182.051 683.257 182.051 681.207V676.434C182.051 673.868 182.28 671.718 182.739 669.984C183.212 668.249 183.878 666.859 184.738 665.813C185.598 664.752 186.63 663.992 187.834 663.533C189.053 663.075 190.414 662.845 191.92 662.845C193.138 662.845 194.256 662.996 195.274 663.297C196.306 663.584 197.223 664.049 198.026 664.695C198.828 665.325 199.509 666.171 200.068 667.232C200.642 668.278 201.079 669.561 201.38 671.08C201.681 672.599 201.831 674.384 201.831 676.434ZM197.832 681.852V675.767C197.832 674.363 197.746 673.13 197.574 672.069C197.416 670.994 197.18 670.077 196.865 669.317C196.549 668.557 196.148 667.941 195.661 667.468C195.188 666.995 194.636 666.651 194.005 666.436C193.389 666.207 192.694 666.092 191.92 666.092C190.973 666.092 190.135 666.271 189.404 666.63C188.673 666.974 188.057 667.525 187.555 668.285C187.068 669.045 186.695 670.041 186.437 671.274C186.179 672.506 186.05 674.004 186.05 675.767V681.852C186.05 683.257 186.129 684.496 186.286 685.571C186.458 686.646 186.709 687.578 187.039 688.366C187.369 689.14 187.77 689.778 188.243 690.28C188.716 690.782 189.261 691.154 189.877 691.398C190.508 691.627 191.203 691.742 191.963 691.742C192.937 691.742 193.79 691.556 194.521 691.183C195.252 690.81 195.861 690.23 196.349 689.441C196.85 688.639 197.223 687.614 197.467 686.367C197.71 685.106 197.832 683.601 197.832 681.852Z" fill="#F6F6F6"/>
<path d="M52.7344 860.104V866.661H49.5094V860.104H52.7344ZM52.3474 895.214V900.955H49.1439V895.214H52.3474ZM56.6475 888.42C56.6475 887.56 56.454 886.786 56.067 886.098C55.68 885.41 55.0422 884.779 54.1535 884.206C53.2648 883.632 52.0751 883.102 50.5844 882.615C48.7784 882.056 47.216 881.375 45.8973 880.572C44.593 879.769 43.5824 878.773 42.8658 877.584C42.1634 876.394 41.8122 874.953 41.8122 873.262C41.8122 871.499 42.1921 869.98 42.9518 868.704C43.7114 867.428 44.7865 866.446 46.1768 865.758C47.5672 865.07 49.2012 864.726 51.0789 864.726C52.5409 864.726 53.8453 864.948 54.992 865.393C56.1387 865.823 57.1062 866.468 57.8945 867.328C58.6972 868.188 59.3064 869.241 59.7221 870.488C60.1521 871.735 60.3671 873.176 60.3671 874.81H56.411C56.411 873.85 56.2963 872.968 56.067 872.165C55.8377 871.363 55.4937 870.668 55.035 870.08C54.5763 869.478 54.0173 869.019 53.358 868.704C52.6986 868.374 51.9389 868.209 51.0789 868.209C49.8749 868.209 48.8787 868.417 48.0904 868.833C47.3163 869.249 46.743 869.836 46.3703 870.596C45.9976 871.341 45.8113 872.208 45.8113 873.197C45.8113 874.115 45.9976 874.918 46.3703 875.606C46.743 876.294 47.3737 876.917 48.2624 877.476C49.1654 878.021 50.4052 878.558 51.9819 879.089C53.831 879.676 55.4005 880.371 56.6905 881.174C57.9805 881.962 58.9624 882.937 59.6361 884.098C60.3098 885.245 60.6466 886.671 60.6466 888.377C60.6466 890.226 60.2309 891.788 59.3996 893.064C58.5682 894.325 57.4 895.286 55.895 895.945C54.39 896.604 52.6269 896.934 50.6059 896.934C49.3875 896.934 48.1835 896.769 46.9938 896.439C45.8041 896.11 44.7291 895.572 43.7688 894.827C42.8084 894.067 42.0416 893.071 41.4682 891.838C40.8949 890.591 40.6082 889.065 40.6082 887.259H44.6073C44.6073 888.477 44.7793 889.488 45.1233 890.29C45.4816 891.079 45.9546 891.709 46.5423 892.182C47.13 892.641 47.775 892.971 48.4774 893.171C49.194 893.358 49.9036 893.451 50.6059 893.451C51.8959 893.451 52.9853 893.25 53.874 892.849C54.777 892.433 55.465 891.845 55.938 891.086C56.411 890.326 56.6475 889.437 56.6475 888.42ZM80.1532 865.006V896.482H76.1756V869.972L68.156 872.896V869.306L79.5297 865.006H80.1532ZM97.2733 893.15H97.6818C99.9752 893.15 101.839 892.827 103.272 892.182C104.705 891.537 105.809 890.67 106.583 889.581C107.357 888.491 107.887 887.266 108.174 885.904C108.461 884.528 108.604 883.116 108.604 881.669V876.874C108.604 875.455 108.439 874.194 108.109 873.09C107.794 871.986 107.35 871.062 106.776 870.316C106.217 869.571 105.58 869.005 104.863 868.618C104.146 868.231 103.387 868.037 102.584 868.037C101.667 868.037 100.842 868.224 100.111 868.596C99.3946 868.955 98.7855 869.464 98.2838 870.123C97.7964 870.782 97.4238 871.556 97.1658 872.445C96.9078 873.334 96.7788 874.301 96.7788 875.348C96.7788 876.279 96.8934 877.182 97.1228 878.057C97.3521 878.931 97.7033 879.719 98.1763 880.422C98.6493 881.124 99.237 881.683 99.9393 882.099C100.656 882.5 101.495 882.701 102.455 882.701C103.344 882.701 104.175 882.529 104.949 882.185C105.737 881.826 106.432 881.346 107.034 880.744C107.651 880.128 108.138 879.433 108.496 878.659C108.869 877.885 109.084 877.075 109.141 876.229H111.034C111.034 877.419 110.797 878.594 110.324 879.755C109.865 880.902 109.22 881.948 108.389 882.894C107.558 883.84 106.583 884.6 105.465 885.173C104.347 885.732 103.129 886.012 101.81 886.012C100.262 886.012 98.9216 885.711 97.7893 885.109C96.6569 884.507 95.7252 883.704 94.9942 882.701C94.2775 881.697 93.74 880.579 93.3817 879.347C93.0377 878.1 92.8657 876.838 92.8657 875.563C92.8657 874.072 93.0735 872.674 93.4892 871.37C93.9049 870.066 94.5212 868.919 95.3382 867.93C96.1552 866.927 97.1658 866.145 98.3698 865.586C99.5881 865.027 100.993 864.748 102.584 864.748C104.376 864.748 105.902 865.106 107.163 865.823C108.425 866.54 109.45 867.5 110.238 868.704C111.041 869.908 111.628 871.262 112.001 872.767C112.374 874.272 112.56 875.821 112.56 877.412V878.852C112.56 880.472 112.453 882.12 112.238 883.797C112.037 885.46 111.643 887.051 111.055 888.57C110.482 890.09 109.643 891.451 108.539 892.655C107.436 893.845 105.995 894.791 104.218 895.493C102.455 896.181 100.276 896.525 97.6818 896.525H97.2733V893.15ZM123.596 891.752V894.956C123.596 896.26 123.266 897.636 122.606 899.084C121.947 900.546 121.023 901.764 119.833 902.739L117.575 901.17C118.034 900.539 118.421 899.894 118.736 899.234C119.052 898.589 119.288 897.916 119.446 897.213C119.618 896.525 119.704 895.794 119.704 895.02V891.752H123.596ZM149.359 878.336V883.109C149.359 885.675 149.129 887.839 148.671 889.602C148.212 891.365 147.553 892.784 146.693 893.859C145.833 894.934 144.793 895.716 143.575 896.203C142.371 896.676 141.009 896.912 139.49 896.912C138.286 896.912 137.175 896.762 136.157 896.461C135.14 896.16 134.222 895.68 133.405 895.02C132.603 894.347 131.915 893.472 131.341 892.397C130.768 891.322 130.331 890.018 130.03 888.484C129.729 886.951 129.578 885.159 129.578 883.109V878.336C129.578 875.77 129.808 873.62 130.266 871.886C130.739 870.152 131.406 868.761 132.266 867.715C133.126 866.654 134.158 865.894 135.362 865.436C136.58 864.977 137.942 864.748 139.447 864.748C140.665 864.748 141.783 864.898 142.801 865.199C143.833 865.486 144.75 865.952 145.553 866.597C146.356 867.228 147.037 868.073 147.596 869.134C148.169 870.18 148.606 871.463 148.907 872.982C149.208 874.502 149.359 876.286 149.359 878.336ZM145.36 883.754V877.67C145.36 876.265 145.274 875.032 145.102 873.971C144.944 872.896 144.707 871.979 144.392 871.219C144.077 870.46 143.675 869.843 143.188 869.37C142.715 868.897 142.163 868.553 141.533 868.338C140.916 868.109 140.221 867.994 139.447 867.994C138.501 867.994 137.663 868.174 136.931 868.532C136.2 868.876 135.584 869.428 135.082 870.187C134.595 870.947 134.222 871.943 133.964 873.176C133.706 874.409 133.577 875.907 133.577 877.67V883.754C133.577 885.159 133.656 886.399 133.814 887.474C133.986 888.549 134.237 889.48 134.566 890.269C134.896 891.043 135.297 891.681 135.77 892.182C136.243 892.684 136.788 893.057 137.405 893.3C138.035 893.53 138.73 893.644 139.49 893.644C140.465 893.644 141.318 893.458 142.049 893.085C142.78 892.713 143.389 892.132 143.876 891.344C144.378 890.541 144.75 889.516 144.994 888.269C145.238 887.008 145.36 885.503 145.36 883.754ZM175.595 878.336V883.109C175.595 885.675 175.366 887.839 174.907 889.602C174.448 891.365 173.789 892.784 172.929 893.859C172.069 894.934 171.03 895.716 169.811 896.203C168.607 896.676 167.246 896.912 165.726 896.912C164.522 896.912 163.411 896.762 162.394 896.461C161.376 896.16 160.459 895.68 159.642 895.02C158.839 894.347 158.151 893.472 157.578 892.397C157.004 891.322 156.567 890.018 156.266 888.484C155.965 886.951 155.815 885.159 155.815 883.109V878.336C155.815 875.77 156.044 873.62 156.503 871.886C156.976 870.152 157.642 868.761 158.502 867.715C159.362 866.654 160.394 865.894 161.598 865.436C162.817 864.977 164.178 864.748 165.683 864.748C166.902 864.748 168.02 864.898 169.037 865.199C170.069 865.486 170.987 865.952 171.789 866.597C172.592 867.228 173.273 868.073 173.832 869.134C174.405 870.18 174.842 871.463 175.143 872.982C175.444 874.502 175.595 876.286 175.595 878.336ZM171.596 883.754V877.67C171.596 876.265 171.51 875.032 171.338 873.971C171.18 872.896 170.944 871.979 170.628 871.219C170.313 870.46 169.912 869.843 169.424 869.37C168.951 868.897 168.4 868.553 167.769 868.338C167.152 868.109 166.457 867.994 165.683 867.994C164.737 867.994 163.899 868.174 163.168 868.532C162.437 868.876 161.82 869.428 161.319 870.187C160.831 870.947 160.459 871.943 160.201 873.176C159.943 874.409 159.814 875.907 159.814 877.67V883.754C159.814 885.159 159.893 886.399 160.05 887.474C160.222 888.549 160.473 889.48 160.803 890.269C161.132 891.043 161.534 891.681 162.007 892.182C162.48 892.684 163.024 893.057 163.641 893.3C164.271 893.53 164.967 893.644 165.726 893.644C166.701 893.644 167.554 893.458 168.285 893.085C169.016 892.713 169.625 892.132 170.112 891.344C170.614 890.541 170.987 889.516 171.23 888.269C171.474 887.008 171.596 885.503 171.596 883.754ZM201.831 878.336V883.109C201.831 885.675 201.602 887.839 201.143 889.602C200.685 891.365 200.025 892.784 199.165 893.859C198.305 894.934 197.266 895.716 196.048 896.203C194.844 896.676 193.482 896.912 191.963 896.912C190.758 896.912 189.648 896.762 188.63 896.461C187.612 896.16 186.695 895.68 185.878 895.02C185.075 894.347 184.387 893.472 183.814 892.397C183.241 891.322 182.803 890.018 182.502 888.484C182.201 886.951 182.051 885.159 182.051 883.109V878.336C182.051 875.77 182.28 873.62 182.739 871.886C183.212 870.152 183.878 868.761 184.738 867.715C185.598 866.654 186.63 865.894 187.834 865.436C189.053 864.977 190.414 864.748 191.92 864.748C193.138 864.748 194.256 864.898 195.274 865.199C196.306 865.486 197.223 865.952 198.026 866.597C198.828 867.228 199.509 868.073 200.068 869.134C200.642 870.18 201.079 871.463 201.38 872.982C201.681 874.502 201.831 876.286 201.831 878.336ZM197.832 883.754V877.67C197.832 876.265 197.746 875.032 197.574 873.971C197.416 872.896 197.18 871.979 196.865 871.219C196.549 870.46 196.148 869.843 195.661 869.37C195.188 868.897 194.636 868.553 194.005 868.338C193.389 868.109 192.694 867.994 191.92 867.994C190.973 867.994 190.135 868.174 189.404 868.532C188.673 868.876 188.057 869.428 187.555 870.187C187.068 870.947 186.695 871.943 186.437 873.176C186.179 874.409 186.05 875.907 186.05 877.67V883.754C186.05 885.159 186.129 886.399 186.286 887.474C186.458 888.549 186.709 889.48 187.039 890.269C187.369 891.043 187.77 891.681 188.243 892.182C188.716 892.684 189.261 893.057 189.877 893.3C190.508 893.53 191.203 893.644 191.963 893.644C192.937 893.644 193.79 893.458 194.521 893.085C195.252 892.713 195.861 892.132 196.349 891.344C196.85 890.541 197.223 889.516 197.467 888.269C197.71 887.008 197.832 885.503 197.832 883.754Z" fill="#F6F6F6"/>
<g opacity="0.6">
<path d="M250.171 65.8438H2782.06" stroke="#767676" stroke-width="1.23708"/>
<path d="M250.171 269.732H2782.06" stroke="#767676" stroke-width="1.23708"/>
<path d="M250.171 473.613H2782.06" stroke="#767676" stroke-width="1.23708"/>
<path d="M250.171 677.502H2782.06" stroke="#767676" stroke-width="1.23708"/>
<path d="M250.171 881.383H2782.06" stroke="#767676" stroke-width="1.23708"/>
</g>
<path d="M2743.42 118.807V306.866" stroke="#051C3D" stroke-width="3.20948" stroke-miterlimit="10"/>
<path d="M2743.42 167.32V250.301" stroke="#051C3D" stroke-width="25.6751" stroke-miterlimit="10"/>
<path d="M2660.59 145.77V369.548" stroke="#89B9FF" stroke-width="3.20948" stroke-miterlimit="10"/>
<path d="M2660.59 204.629V337.715" stroke="#137010" stroke-width="25.6751" stroke-miterlimit="10"/>
<path d="M2577.67 106.279V301.067" stroke="#051C3D" stroke-width="3.20948" stroke-miterlimit="10"/>
<path d="M2577.67 151.896V262.5" stroke="#7F7F7F" stroke-width="25.6751" stroke-miterlimit="10"/>
<path d="M2494.85 28.1113V261.518" stroke="#89B9FF" stroke-width="3.20948" stroke-miterlimit="10"/>
<path d="M2494.85 73.4629V220.06" stroke="#137010" stroke-width="25.6751" stroke-miterlimit="10"/>
<path d="M2412.02 138.494V323.709" stroke="#051C3D" stroke-width="3.20948" stroke-miterlimit="10"/>
<path d="M2412.02 182.857V272.566" stroke="#7F7F7F" stroke-width="25.6751" stroke-miterlimit="10"/>
<path d="M2329.1 214.312V400.458" stroke="#89B9FF" stroke-width="3.20948" stroke-miterlimit="10"/>
<path d="M2329.1 273.115V341.6" stroke="#137010" stroke-width="25.6751" stroke-miterlimit="10"/>
<path d="M2246.27 166.064V356.093" stroke="#051C3D" stroke-width="3.20948" stroke-miterlimit="10"/>
<path d="M2246.27 224.918V296.575" stroke="#7F7F7F" stroke-width="25.6751" stroke-miterlimit="10"/>
<path d="M2163.44 214.312V444.82" stroke="#89B9FF" stroke-width="3.20948" stroke-miterlimit="10"/>
<path d="M2163.44 273.115V406.256" stroke="#137010" stroke-width="25.6751" stroke-miterlimit="10"/>
<path d="M2080.53 214.312V373.928" stroke="#051C3D" stroke-width="3.20948" stroke-miterlimit="10"/>
<path d="M2080.53 273.115V338.099" stroke="#7F7F7F" stroke-width="25.6751" stroke-miterlimit="10"/>
<path d="M1997.7 189.207V356.098" stroke="#89B9FF" stroke-width="3.20948" stroke-miterlimit="10"/>
<path d="M1997.7 248.061V296.58" stroke="#137010" stroke-width="25.6751" stroke-miterlimit="10"/>
<path d="M1914.78 214.312V533.543" stroke="#051C3D" stroke-width="3.20948" stroke-miterlimit="10"/>
<path d="M1914.78 273.115V498.809" stroke="#7F7F7F" stroke-width="25.6751" stroke-miterlimit="10"/>
<path d="M1831.95 304.02V554.766" stroke="#89B9FF" stroke-width="3.20948" stroke-miterlimit="10"/>
<path d="M1831.95 362.822V495.908" stroke="#137010" stroke-width="25.6751" stroke-miterlimit="10"/>
<path d="M1749.13 314.633V600.114" stroke="#051C3D" stroke-width="3.20948" stroke-miterlimit="10"/>
<path d="M1749.13 368.621V541.255" stroke="#7F7F7F" stroke-width="25.6751" stroke-miterlimit="10"/>
<path d="M1666.22 478.566V710.058" stroke="#89B9FF" stroke-width="3.20948" stroke-miterlimit="10"/>
<path d="M1666.22 518.119V651.205" stroke="#137010" stroke-width="25.6751" stroke-miterlimit="10"/>
<path d="M1583.39 255.557V506.303" stroke="#051C3D" stroke-width="3.20948" stroke-miterlimit="10"/>
<path d="M1583.39 314.354V478.345" stroke="#7F7F7F" stroke-width="25.6751" stroke-miterlimit="10"/>
<path d="M1500.55 276.012V526.813" stroke="#89B9FF" stroke-width="3.20948" stroke-miterlimit="10"/>
<path d="M1500.55 370.533V467.954" stroke="#137010" stroke-width="25.6751" stroke-miterlimit="10"/>
<path d="M1417.64 370.533V621.279" stroke="#051C3D" stroke-width="3.20948" stroke-miterlimit="10"/>
<path d="M1417.64 477.584V562.479" stroke="#7F7F7F" stroke-width="25.6751" stroke-miterlimit="10"/>
<path d="M1334.81 429.395V680.141" stroke="#89B9FF" stroke-width="3.20948" stroke-miterlimit="10"/>
<path d="M1334.81 554.764V621.279" stroke="#137010" stroke-width="25.6751" stroke-miterlimit="10"/>
<path d="M1251.98 394.658V645.404" stroke="#051C3D" stroke-width="3.20948" stroke-miterlimit="10"/>
<path d="M1251.98 505.592V586.603" stroke="#7F7F7F" stroke-width="25.6751" stroke-miterlimit="10"/>
<path d="M1169.07 370.533V621.279" stroke="#89B9FF" stroke-width="3.20948" stroke-miterlimit="10"/>
<path d="M1169.07 461.23V562.481" stroke="#137010" stroke-width="25.6751" stroke-miterlimit="10"/>
<path d="M1086.23 432.348V683.094" stroke="#051C3D" stroke-width="3.20948" stroke-miterlimit="10"/>
<path d="M1086.23 468.01V624.289" stroke="#7F7F7F" stroke-width="25.6751" stroke-miterlimit="10"/>
<path d="M1003.4 328.035V578.781" stroke="#89B9FF" stroke-width="3.20948" stroke-miterlimit="10"/>
<path d="M1003.4 386.889V538.299" stroke="#137010" stroke-width="25.6751" stroke-miterlimit="10"/>
<path d="M920.489 224.869V475.615" stroke="#051C3D" stroke-width="3.20948" stroke-miterlimit="10"/>
<path d="M920.489 283.73V437.055" stroke="#7F7F7F" stroke-width="25.6751" stroke-miterlimit="10"/>
<path d="M837.659 267.318V518.065" stroke="#89B9FF" stroke-width="3.20948" stroke-miterlimit="10"/>
<path d="M837.659 309.76V459.256" stroke="#137010" stroke-width="25.6751" stroke-miterlimit="10"/>
<path d="M754.828 215.293V466.039" stroke="#051C3D" stroke-width="3.20948" stroke-miterlimit="10"/>
<path d="M754.828 274.098V315.561" stroke="#7F7F7F" stroke-width="25.6751" stroke-miterlimit="10"/>
<path d="M671.912 158.354V409.1" stroke="#89B9FF" stroke-width="3.20948" stroke-miterlimit="10"/>
<path d="M671.912 217.207V283.723" stroke="#137010" stroke-width="25.6751" stroke-miterlimit="10"/>
<path d="M588.415 279.961V579.015" stroke="#051C3D" stroke-width="3.20948" stroke-miterlimit="10"/>
<path d="M588.415 313.559V518.528" stroke="#7F7F7F" stroke-width="25.6751" stroke-miterlimit="10"/>
<path d="M507.52 447.971V699.983" stroke="#89B9FF" stroke-width="3.20948" stroke-miterlimit="10"/>
<path d="M507.52 384.123V501.729" stroke="#137010" stroke-width="25.6751" stroke-miterlimit="10"/>
<path d="M422.371 434.527V683.179" stroke="#051C3D" stroke-width="3.20948" stroke-miterlimit="10"/>
<path d="M422.371 474.848V626.055" stroke="#7F7F7F" stroke-width="25.6751" stroke-miterlimit="10"/>
</svg>
