<svg width="1920" height="636" viewBox="0 0 1920 636" fill="none" xmlns="http://www.w3.org/2000/svg">
<path d="M73.7429 585.343H0V683.818C0 686.68 2.32017 689 5.18217 689H1910.82C1913.68 689 1916 686.68 1916 683.818V33.5878L1834.22 117.267C1831.53 120.018 1826.89 118.984 1825.62 115.351L1788.7 9.47565C1787.97 7.39436 1786.01 6 1783.81 6H1678.35C1677.15 6 1675.99 6.41329 1675.07 7.16984L1602.85 66.1974C1601.43 67.3592 1599.5 67.6824 1597.78 67.0469L1511.93 35.3699C1509.25 34.3837 1506.29 35.7399 1505.28 38.406L1439.85 212.234C1438.52 215.771 1433.97 216.739 1431.31 214.051L1359.79 141.669C1357.45 139.301 1353.52 139.722 1351.73 142.533L1340.38 160.396C1338.89 162.756 1335.78 163.501 1333.38 162.08L1295.08 139.47C1292.75 138.098 1289.77 138.74 1288.21 140.945L1234.49 217.06C1233.31 218.73 1231.26 219.551 1229.25 219.156L1166.81 206.869C1164.3 206.375 1161.81 207.783 1160.94 210.185L1093.21 396.755C1092.67 398.252 1091.47 399.415 1089.96 399.911L990.892 432.402C988.708 433.118 986.312 432.309 985.009 430.415L915.71 329.714C913.605 326.654 909.058 326.738 907.067 329.873L877.262 376.794C876.59 377.852 875.557 378.63 874.355 378.985L808.471 398.432C806.984 398.871 805.771 399.953 805.167 401.381L766.274 493.222C765.62 494.766 764.259 495.898 762.622 496.26L673.341 516.025C672.317 516.252 671.385 516.785 670.67 517.552L611.019 581.579C609.078 583.662 605.82 583.789 603.723 581.863L557.646 539.551C556.025 538.062 553.639 537.76 551.698 538.798L411.42 613.816C409.853 614.654 407.965 614.631 406.419 613.754L358.938 586.823C357.324 585.907 355.344 585.924 353.747 586.868L310.816 612.211C310.018 612.682 309.109 612.931 308.182 612.931H217.973C216.783 612.931 215.63 612.522 214.707 611.772L126.358 540.057C124.271 538.364 121.237 538.546 119.368 540.476L77.4664 583.765C76.4902 584.774 75.1466 585.343 73.7429 585.343Z" fill="url(#paint0_linear_44_111)"/>
<path d="M3.65169 585.584H71.6353C74.4441 585.584 77.1326 584.444 79.0853 582.425L116.134 544.117C119.873 540.252 125.946 539.888 130.119 543.278L213.311 610.863C215.158 612.364 217.466 613.183 219.846 613.183H306.758C308.612 613.183 310.433 612.685 312.03 611.742L350.493 589.016C354.025 586.929 358.455 587.122 361.792 589.507L398.67 615.865C401.904 618.176 406.174 618.434 409.663 616.53L548.315 540.841C552.21 538.715 557.026 539.304 560.294 542.307L599.798 578.615C603.993 582.471 610.515 582.216 614.397 578.046L669.413 518.945C670.843 517.408 672.707 516.342 674.757 515.888L759.814 497.043C763.089 496.317 765.81 494.051 767.117 490.962L803.997 403.801C805.206 400.945 807.631 398.779 810.606 397.901L872.245 379.691C874.65 378.981 876.715 377.423 878.059 375.306L902.604 336.633C906.587 330.358 915.684 330.191 919.895 336.315L982.518 427.392C985.125 431.183 989.919 432.802 994.291 431.367L1087.23 400.862C1090.25 399.869 1092.65 397.541 1093.74 394.548L1159.06 214.446C1160.8 209.64 1165.79 206.823 1170.8 207.811L1225.39 218.562C1229.49 219.369 1233.67 217.639 1236 214.174L1284.8 141.559C1288.26 136.406 1295.44 135.433 1300.15 139.479L1324.89 160.731C1329.91 165.047 1337.64 163.609 1340.77 157.775L1347.62 145.02C1351.04 138.654 1359.77 137.654 1364.54 143.081L1426.43 213.468C1431.65 219.408 1441.34 217.544 1443.98 210.089L1503.08 43.4935C1505.01 38.0497 1511.02 35.235 1516.44 37.2359L1594.45 66.044C1597.9 67.3167 1601.76 66.6697 1604.6 64.3433L1673.06 8.34237C1674.91 6.82759 1677.23 6 1679.62 6H1779.09C1783.69 6 1787.75 9.04055 1789.04 13.463L1819.74 118.755C1822.03 126.622 1832.12 128.841 1837.5 122.663L1915.11 33.5992" stroke="#E1DDEA" stroke-width="10.3642" stroke-linecap="round"/>
<defs>
<linearGradient id="paint0_linear_44_111" x1="958" y1="6" x2="958" y2="689" gradientUnits="userSpaceOnUse">
<stop stop-color="#127510"/>
<stop offset="1" stop-color="#148D00" stop-opacity="0"/>
</linearGradient>
</defs>
</svg>
